{
  "accessors": [
    {
      "bufferView": 2,
      "componentType": 5126,
      "count": 65532,
      "max": [
        7.877614974975586,
        8.702460289001465,
        10.434070587158203
      ],
      "min": [
        -7.605788230895996,
        -8.33069133758545,
        0.08818600326776505
      ],
      "type": "VEC3"
    },
    {
      "bufferView": 2,
      "byteOffset": 786384,
      "componentType": 5126,
      "count": 65532,
      "max": [
        0.9997537732124329,
        0.9999821186065674,
        0.999961256980896
      ],
      "min": [
        -0.9999536275863647,
        -0.999998927116394,
        -0.9989081025123596
      ],
      "type": "VEC3"
    },
    {
      "bufferView": 1,
      "componentType": 5126,
      "count": 65532,
      "max": [
        0.9993969798088074,
        0.9969509840011597
      ],
      "min": [
        0.0005890000029467046,
        0.0005859999801032245
      ],
      "type": "VEC2"
    },
    {
      "bufferView": 0,
      "componentType": 5125,
      "count": 190140,
      "type": "SCALAR"
    },
    {
      "bufferView": 2,
      "byteOffset": 1572768,
      "componentType": 5126,
      "count": 65532,
      "max": [
        7.8546648025512695,
        6.063858985900879,
        10.687835693359375
      ],
      "min": [
        -7.650803089141846,
        -2.724670886993408,
        0.08818600326776505
      ],
      "type": "VEC3"
    },
    {
      "bufferView": 2,
      "byteOffset": 2359152,
      "componentType": 5126,
      "count": 65532,
      "max": [
        0.9999645948410034,
        0.9997138381004333,
        0.9999891519546509
      ],
      "min": [
        -0.9999312162399292,
        -0.9999666213989258,
        -0.9978065490722656
      ],
      "type": "VEC3"
    },
    {
      "bufferView": 1,
      "byteOffset": 524256,
      "componentType": 5126,
      "count": 65532,
      "max": [
        0.999409019947052,
        0.9978619813919067
      ],
      "min": [
        0.0005869999877177179,
        0.0005840000230818987
      ],
      "type": "VEC2"
    },
    {
      "bufferView": 0,
      "byteOffset": 760560,
      "componentType": 5125,
      "count": 190374,
      "type": "SCALAR"
    },
    {
      "bufferView": 2,
      "byteOffset": 3145536,
      "componentType": 5126,
      "count": 65532,
      "max": [
        7.9810709953308105,
        9.330290794372559,
        5.70959997177124
      ],
      "min": [
        -7.060140132904053,
        -6.256399154663086,
        0.08818600326776505
      ],
      "type": "VEC3"
    },
    {
      "bufferView": 2,
      "byteOffset": 3931920,
      "componentType": 5126,
      "count": 65532,
      "max": [
        0.9999717473983765,
        0.9999681711196899,
        0.9999629259109497
      ],
      "min": [
        -0.9993991851806641,
        -0.9999861717224121,
        -0.9997910857200623
      ],
      "type": "VEC3"
    },
    {
      "bufferView": 1,
      "byteOffset": 1048512,
      "componentType": 5126,
      "count": 65532,
      "max": [
        0.9994950294494629,
        0.9982249736785889
      ],
      "min": [
        0.0005849999724887311,
        0.0005840000230818987
      ],
      "type": "VEC2"
    },
    {
      "bufferView": 0,
      "byteOffset": 1522056,
      "componentType": 5125,
      "count": 191517,
      "type": "SCALAR"
    },
    {
      "bufferView": 2,
      "byteOffset": 4718304,
      "componentType": 5126,
      "count": 65532,
      "max": [
        3.946402072906494,
        -1.1784499883651733,
        11.203475952148438
      ],
      "min": [
        -6.977995872497559,
        -8.464982986450195,
        0.08818600326776505
      ],
      "type": "VEC3"
    },
    {
      "bufferView": 2,
      "byteOffset": 5504688,
      "componentType": 5126,
      "count": 65532,
      "max": [
        0.9999992847442627,
        0.9999332427978516,
        0.9999629259109497
      ],
      "min": [
        -0.9999402761459351,
        -0.9999326467514038,
        -0.9999202489852905
      ],
      "type": "VEC3"
    },
    {
      "bufferView": 1,
      "byteOffset": 1572768,
      "componentType": 5126,
      "count": 65532,
      "max": [
        0.9994009733200073,
        0.9969879984855652
      ],
      "min": [
        0.0005879999953322113,
        0.0005840000230818987
      ],
      "type": "VEC2"
    },
    {
      "bufferView": 0,
      "byteOffset": 2288124,
      "componentType": 5125,
      "count": 193110,
      "type": "SCALAR"
    },
    {
      "bufferView": 2,
      "byteOffset": 6291072,
      "componentType": 5126,
      "count": 65532,
      "max": [
        3.9895989894866943,
        6.363781929016113,
        10.963706970214844
      ],
      "min": [
        -3.519835948944092,
        -6.10167121887207,
        4.6913018226623535
      ],
      "type": "VEC3"
    },
    {
      "bufferView": 2,
      "byteOffset": 7077456,
      "componentType": 5126,
      "count": 65532,
      "max": [
        0.9999254941940308,
        0.9999384880065918,
        0.9999886751174927
      ],
      "min": [
        -0.9999679327011108,
        -0.9997797608375549,
        -0.999772846698761
      ],
      "type": "VEC3"
    },
    {
      "bufferView": 1,
      "byteOffset": 2097024,
      "componentType": 5126,
      "count": 65532,
      "max": [
        0.9994869828224182,
        0.9966959953308105
      ],
      "min": [
        0.0005859999801032245,
        0.0005840000230818987
      ],
      "type": "VEC2"
    },
    {
      "bufferView": 0,
      "byteOffset": 3060564,
      "componentType": 5125,
      "count": 179817,
      "type": "SCALAR"
    },
    {
      "bufferView": 2,
      "byteOffset": 7863840,
      "componentType": 5126,
      "count": 65532,
      "max": [
        5.965207099914551,
        2.9857139587402344,
        10.62669563293457
      ],
      "min": [
        -3.480120897293091,
        -8.818488121032715,
        0.08818600326776505
      ],
      "type": "VEC3"
    },
    {
      "bufferView": 2,
      "byteOffset": 8650224,
      "componentType": 5126,
      "count": 65532,
      "max": [
        0.999953031539917,
        0.9999394416809082,
        0.9999710321426392
      ],
      "min": [
        -0.9999819993972778,
        -0.9999862909317017,
        -0.9995854496955872
      ],
      "type": "VEC3"
    },
    {
      "bufferView": 1,
      "byteOffset": 2621280,
      "componentType": 5126,
      "count": 65532,
      "max": [
        0.9994189739227295,
        0.9956750273704529
      ],
      "min": [
        0.0005910000181756914,
        0.0005830000154674053
      ],
      "type": "VEC2"
    },
    {
      "bufferView": 0,
      "byteOffset": 3779832,
      "componentType": 5125,
      "count": 185640,
      "type": "SCALAR"
    },
    {
      "bufferView": 2,
      "byteOffset": 9436608,
      "componentType": 5126,
      "count": 65532,
      "max": [
        3.7885520458221436,
        9.352620124816895,
        10.496519088745117
      ],
      "min": [
        -3.691612958908081,
        -8.351004600524902,
        0.08818600326776505
      ],
      "type": "VEC3"
    },
    {
      "bufferView": 2,
      "byteOffset": 10222992,
      "componentType": 5126,
      "count": 65532,
      "max": [
        0.9998840093612671,
        0.9999977350234985,
        0.9999887943267822
      ],
      "min": [
        -0.9999297857284546,
        -0.9998917579650879,
        -0.9997337460517883
      ],
      "type": "VEC3"
    },
    {
      "bufferView": 1,
      "byteOffset": 3145536,
      "componentType": 5126,
      "count": 65532,
      "max": [
        0.9994750022888184,
        0.9957230091094971
      ],
      "min": [
        0.0005869999877177179,
        0.0005840000230818987
      ],
      "type": "VEC2"
    },
    {
      "bufferView": 0,
      "byteOffset": 4522392,
      "componentType": 5125,
      "count": 162513,
      "type": "SCALAR"
    },
    {
      "bufferView": 2,
      "byteOffset": 11009376,
      "componentType": 5126,
      "count": 65532,
      "max": [
        5.841393947601318,
        9.352620124816895,
        14.472803115844727
      ],
      "min": [
        -3.3676130771636963,
        -5.146468162536621,
        1.139206051826477
      ],
      "type": "VEC3"
    },
    {
      "bufferView": 2,
      "byteOffset": 11795760,
      "componentType": 5126,
      "count": 65532,
      "max": [
        0.9999746084213257,
        0.9999266862869263,
        0.9999278783798218
      ],
      "min": [
        -0.9999293088912964,
        -0.9997878670692444,
        -0.9998475909233093
      ],
      "type": "VEC3"
    },
    {
      "bufferView": 1,
      "byteOffset": 3669792,
      "componentType": 5126,
      "count": 65532,
      "max": [
        0.999472975730896,
        0.9981070160865784
      ],
      "min": [
        0.0005830000154674053,
        0.0005849999724887311
      ],
      "type": "VEC2"
    },
    {
      "bufferView": 0,
      "byteOffset": 5172444,
      "componentType": 5125,
      "count": 172023,
      "type": "SCALAR"
    },
    {
      "bufferView": 2,
      "byteOffset": 12582144,
      "componentType": 5126,
      "count": 65532,
      "max": [
        7.630885124206543,
        8.96574592590332,
        13.189393997192383
      ],
      "min": [
        -2.10611891746521,
        -6.138011932373047,
        0.08818600326776505
      ],
      "type": "VEC3"
    },
    {
      "bufferView": 2,
      "byteOffset": 13368528,
      "componentType": 5126,
      "count": 65532,
      "max": [
        0.9999879598617554,
        0.9997431635856628,
        0.9999960660934448
      ],
      "min": [
        -0.9987055063247681,
        -0.9998937845230103,
        -0.9997346997261047
      ],
      "type": "VEC3"
    },
    {
      "bufferView": 1,
      "byteOffset": 4194048,
      "componentType": 5126,
      "count": 65532,
      "max": [
        0.9993990063667297,
        0.9958270192146301
      ],
      "min": [
        0.0005879999953322113,
        0.0005840000230818987
      ],
      "type": "VEC2"
    },
    {
      "bufferView": 0,
      "byteOffset": 5860536,
      "componentType": 5125,
      "count": 191706,
      "type": "SCALAR"
    },
    {
      "bufferView": 2,
      "byteOffset": 14154912,
      "componentType": 5126,
      "count": 65532,
      "max": [
        7.607079982757568,
        8.958894729614258,
        6.856997966766357
      ],
      "min": [
        -5.951731204986572,
        -8.380086898803711,
        0.08818600326776505
      ],
      "type": "VEC3"
    },
    {
      "bufferView": 2,
      "byteOffset": 14941296,
      "componentType": 5126,
      "count": 65532,
      "max": [
        0.9999635219573975,
        0.9999289512634277,
        0.9999855756759644
      ],
      "min": [
        -0.9999624490737915,
        -0.9986335635185242,
        -0.9991167187690735
      ],
      "type": "VEC3"
    },
    {
      "bufferView": 1,
      "byteOffset": 4718304,
      "componentType": 5126,
      "count": 65532,
      "max": [
        0.9994300007820129,
        0.9919250011444092
      ],
      "min": [
        0.0005859999801032245,
        0.0005840000230818987
      ],
      "type": "VEC2"
    },
    {
      "bufferView": 0,
      "byteOffset": 6627360,
      "componentType": 5125,
      "count": 183411,
      "type": "SCALAR"
    },
    {
      "bufferView": 2,
      "byteOffset": 15727680,
      "componentType": 5126,
      "count": 51349,
      "max": [
        7.967286109924316,
        2.7921669483184814,
        10.380714416503906
      ],
      "min": [
        3.5823490619659424,
        -5.453553199768066,
        0.08818600326776505
      ],
      "type": "VEC3"
    },
    {
      "bufferView": 2,
      "byteOffset": 16343868,
      "componentType": 5126,
      "count": 51349,
      "max": [
        0.9999979734420776,
        0.9999649524688721,
        0.9999738931655884
      ],
      "min": [
        -0.9999006986618042,
        -0.999869704246521,
        -0.9999736547470093
      ],
      "type": "VEC3"
    },
    {
      "bufferView": 1,
      "byteOffset": 5242560,
      "componentType": 5126,
      "count": 51349,
      "max": [
        0.9994720220565796,
        0.9958950281143188
      ],
      "min": [
        0.0005849999724887311,
        0.0005840000230818987
      ],
      "type": "VEC2"
    },
    {
      "bufferView": 0,
      "byteOffset": 7361004,
      "componentType": 5125,
      "count": 137655,
      "type": "SCALAR"
    },
    {
      "bufferView": 2,
      "byteOffset": 16960056,
      "componentType": 5126,
      "count": 2939,
      "max": [
        7.870919227600098,
        8.702460289001465,
        0.08818600326776505
      ],
      "min": [
        -7.598960876464844,
        -7.576529026031494,
        0.08818600326776505
      ],
      "type": "VEC3"
    },
    {
      "bufferView": 2,
      "byteOffset": 16995324,
      "componentType": 5126,
      "count": 2939,
      "max": [
        0.8865388631820679,
        0.7349194288253784,
        -0.03160083293914795
      ],
      "min": [
        -0.9877870678901672,
        -0.13889817893505096,
        -1.0
      ],
      "type": "VEC3"
    },
    {
      "bufferView": 1,
      "byteOffset": 5653352,
      "componentType": 5126,
      "count": 2939,
      "max": [
        0.8465930223464966,
        0.7032589912414551
      ],
      "min": [
        0.6499500274658203,
        0.5351099967956543
      ],
      "type": "VEC2"
    },
    {
      "bufferView": 0,
      "byteOffset": 7911624,
      "componentType": 5125,
      "count": 6096,
      "type": "SCALAR"
    }
  ],
  "asset": {
    "extras": {
      "author": "noe-3d.at (https://sketchfab.com/www.noe-3d.at)",
      "license": "CC-BY-NC-4.0 (http://creativecommons.org/licenses/by-nc/4.0/)",
      "source": "https://sketchfab.com/3d-models/tritonen-und-najadenbrunnen-3b44d25ec4d142e19e58e00af8796560",
      "title": "Tritonen- und Najadenbrunnen"
    },
    "generator": "Sketchfab-15.70.0",
    "version": "2.0"
  },
  "bufferViews": [
    {
      "buffer": 0,
      "byteLength": 7936008,
      "name": "floatBufferViews",
      "target": 34963
    },
    {
      "buffer": 0,
      "byteLength": 5676864,
      "byteOffset": 7936008,
      "byteStride": 8,
      "name": "floatBufferViews",
      "target": 34962
    },
    {
      "buffer": 0,
      "byteLength": 17030592,
      "byteOffset": 13612872,
      "byteStride": 12,
      "name": "floatBufferViews",
      "target": 34962
    }
  ],
  "buffers": [
    {
      "byteLength": 30643464,
      "uri": "scene.bin"
    }
  ],
  "extensionsUsed": [
    "KHR_materials_specular"
  ],
  "images": [
    {
      "uri": "textures/Najadenbrunnen_O_baseColor.png"
    },
    {
      "uri": "textures/Najadenbrunnen_O_metallicRoughness.png"
    }
  ],
  "materials": [
    {
      "doubleSided": true,
      "extensions": {
        "KHR_materials_specular": {
          "specularColorFactor": [
            1.0,
            1.0,
            1.0
          ],
          "specularFactor": 0.0
        }
      },
      "name": "Najadenbrunnen_O",
      "occlusionTexture": {
        "index": 1
      },
      "pbrMetallicRoughness": {
        "baseColorTexture": {
          "index": 0
        },
        "metallicFactor": 0.0,
        "metallicRoughnessTexture": {
          "index": 1
        }
      }
    },
    {
      "doubleSided": true,
      "name": "bottom",
      "pbrMetallicRoughness": {
        "baseColorFactor": [
          0.214034,
          0.214034,
          0.214034,
          1.0
        ],
        "metallicFactor": 0.0,
        "roughnessFactor": 0.8011823178082373
      }
    }
  ],
  "meshes": [
    {
      "name": "Object_0",
      "primitives": [
        {
          "attributes": {
            "NORMAL": 1,
            "POSITION": 0,
            "TEXCOORD_0": 2
          },
          "indices": 3,
          "material": 0,
          "mode": 4
        }
      ]
    },
    {
      "name": "Object_1",
      "primitives": [
        {
          "attributes": {
            "NORMAL": 5,
            "POSITION": 4,
            "TEXCOORD_0": 6
          },
          "indices": 7,
          "material": 0,
          "mode": 4
        }
      ]
    },
    {
      "name": "Object_2",
      "primitives": [
        {
          "attributes": {
            "NORMAL": 9,
            "POSITION": 8,
            "TEXCOORD_0": 10
          },
          "indices": 11,
          "material": 0,
          "mode": 4
        }
      ]
    },
    {
      "name": "Object_3",
      "primitives": [
        {
          "attributes": {
            "NORMAL": 13,
            "POSITION": 12,
            "TEXCOORD_0": 14
          },
          "indices": 15,
          "material": 0,
          "mode": 4
        }
      ]
    },
    {
      "name": "Object_4",
      "primitives": [
        {
          "attributes": {
            "NORMAL": 17,
            "POSITION": 16,
            "TEXCOORD_0": 18
          },
          "indices": 19,
          "material": 0,
          "mode": 4
        }
      ]
    },
    {
      "name": "Object_5",
      "primitives": [
        {
          "attributes": {
            "NORMAL": 21,
            "POSITION": 20,
            "TEXCOORD_0": 22
          },
          "indices": 23,
          "material": 0,
          "mode": 4
        }
      ]
    },
    {
      "name": "Object_6",
      "primitives": [
        {
          "attributes": {
            "NORMAL": 25,
            "POSITION": 24,
            "TEXCOORD_0": 26
          },
          "indices": 27,
          "material": 0,
          "mode": 4
        }
      ]
    },
    {
      "name": "Object_7",
      "primitives": [
        {
          "attributes": {
            "NORMAL": 29,
            "POSITION": 28,
            "TEXCOORD_0": 30
          },
          "indices": 31,
          "material": 0,
          "mode": 4
        }
      ]
    },
    {
      "name": "Object_8",
      "primitives": [
        {
          "attributes": {
            "NORMAL": 33,
            "POSITION": 32,
            "TEXCOORD_0": 34
          },
          "indices": 35,
          "material": 0,
          "mode": 4
        }
      ]
    },
    {
      "name": "Object_9",
      "primitives": [
        {
          "attributes": {
            "NORMAL": 37,
            "POSITION": 36,
            "TEXCOORD_0": 38
          },
          "indices": 39,
          "material": 0,
          "mode": 4
        }
      ]
    },
    {
      "name": "Object_10",
      "primitives": [
        {
          "attributes": {
            "NORMAL": 41,
            "POSITION": 40,
            "TEXCOORD_0": 42
          },
          "indices": 43,
          "material": 0,
          "mode": 4
        }
      ]
    },
    {
      "name": "Object_11",
      "primitives": [
        {
          "attributes": {
            "NORMAL": 45,
            "POSITION": 44,
            "TEXCOORD_0": 46
          },
          "indices": 47,
          "material": 1,
          "mode": 4
        }
      ]
    }
  ],
  "nodes": [
    {
      "children": [
        1
      ],
      "matrix": [
        -0.6018331050872803,
        1.773296826999176e-16,
        -0.7986218929290771,
        0.0,
        -0.7986218929290771,
        -1.3363379404991e-16,
        0.6018331050872803,
        0.0,
        0.0,
        1.0,
        2.220446049250313e-16,
        0.0,
        0.0,
        0.0,
        0.0,
        1.0
      ],
      "name": "Sketchfab_model"
    },
    {
      "children": [
        2,
        3,
        4,
        5,
        6,
        7,
        8,
        9,
        10,
        11,
        12,
        13
      ],
      "name": "Najadenbrunnen_C.obj.cleaner.materialmerger.gles"
    },
    {
      "mesh": 0,
      "name": "Object_2"
    },
    {
      "mesh": 1,
      "name": "Object_3"
    },
    {
      "mesh": 2,
      "name": "Object_4"
    },
    {
      "mesh": 3,
      "name": "Object_5"
    },
    {
      "mesh": 4,
      "name": "Object_6"
    },
    {
      "mesh": 5,
      "name": "Object_7"
    },
    {
      "mesh": 6,
      "name": "Object_8"
    },
    {
      "mesh": 7,
      "name": "Object_9"
    },
    {
      "mesh": 8,
      "name": "Object_10"
    },
    {
      "mesh": 9,
      "name": "Object_11"
    },
    {
      "mesh": 10,
      "name": "Object_12"
    },
    {
      "mesh": 11,
      "name": "Object_13"
    }
  ],
  "samplers": [
    {
      "magFilter": 9729,
      "minFilter": 9987,
      "wrapS": 10497,
      "wrapT": 10497
    }
  ],
  "scene": 0,
  "scenes": [
    {
      "name": "Sketchfab_Scene",
      "nodes": [
        0
      ]
    }
  ],
  "textures": [
    {
      "sampler": 0,
      "source": 0
    },
    {
      "sampler": 0,
      "source": 1
    }
  ]
}
