{
  "accessors": [
    {
      "bufferView": 2,
      "componentType": 5126,
      "count": 65532,
      "max": [
        0.1233849972486496,
        -0.01370800007134676,
        0.15219199657440186
      ],
      "min": [
        -0.1500999927520752,
        -0.567205011844635,
        -0.1999019980430603
      ],
      "type": "VEC3"
    },
    {
      "bufferView": 2,
      "byteOffset": 786384,
      "componentType": 5126,
      "count": 65532,
      "max": [
        0.999995231628418,
        1.0,
        0.9999971389770508
      ],
      "min": [
        -0.9999892711639404,
        -0.9999123811721802,
        -0.9998344779014587
      ],
      "type": "VEC3"
    },
    {
      "bufferView": 3,
      "componentType": 5126,
      "count": 65532,
      "max": [
        0.9999960064888,
        0.9999849200248718,
        0.9999860525131226,
        1.0
      ],
      "min": [
        -0.999993085861206,
        -0.9999926090240479,
        -0.9999061226844788,
        -1.0
      ],
      "type": "VEC4"
    },
    {
      "bufferView": 1,
      "componentType": 5126,
      "count": 65532,
      "max": [
        0.9496189951896667,
        0.9948809742927551
      ],
      "min": [
        0.0004879999905824661,
        0.0004879999905824661
      ],
      "type": "VEC2"
    },
    {
      "bufferView": 0,
      "componentType": 5125,
      "count": 200778,
      "type": "SCALAR"
    },
    {
      "bufferView": 2,
      "byteOffset": 1572768,
      "componentType": 5126,
      "count": 54092,
      "max": [
        0.08965200185775757,
        -0.01370800007134676,
        0.14544999599456787
      ],
      "min": [
        -0.1327109932899475,
        -0.47824299335479736,
        -0.1908150017261505
      ],
      "type": "VEC3"
    },
    {
      "bufferView": 2,
      "byteOffset": 2221872,
      "componentType": 5126,
      "count": 54092,
      "max": [
        0.999987006187439,
        0.9999995231628418,
        0.9999297857284546
      ],
      "min": [
        -0.9999740123748779,
        -0.9999204874038696,
        -0.999871015548706
      ],
      "type": "VEC3"
    },
    {
      "bufferView": 3,
      "byteOffset": 1048512,
      "componentType": 5126,
      "count": 54092,
      "max": [
        0.9999451637268066,
        0.9999819993972778,
        0.9999901056289673,
        1.0
      ],
      "min": [
        -0.9998669028282166,
        -0.9999440908432007,
        -0.9999477863311768,
        -1.0
      ],
      "type": "VEC4"
    },
    {
      "bufferView": 1,
      "byteOffset": 524256,
      "componentType": 5126,
      "count": 54092,
      "max": [
        0.9496189951896667,
        0.9995120167732239
      ],
      "min": [
        0.0004980000085197389,
        0.0004980000085197389
      ],
      "type": "VEC2"
    },
    {
      "bufferView": 0,
      "byteOffset": 803112,
      "componentType": 5125,
      "count": 156060,
      "type": "SCALAR"
    }
  ],
  "asset": {
    "extras": {
      "author": "Cleveland Museum of Art (https://sketchfab.com/clevelandart)",
      "license": "CC0-1.0 (http://creativecommons.org/publicdomain/zero/1.0/)",
      "source": "https://sketchfab.com/3d-models/1992230-apollo-and-daphne-8524830132374828b3ffd8e8fdd17f99",
      "title": "1992.230 Apollo and Daphne"
    },
    "generator": "Sketchfab-15.4.0",
    "version": "2.0"
  },
  "bufferViews": [
    {
      "buffer": 0,
      "byteLength": 1427352,
      "name": "floatBufferViews",
      "target": 34963
    },
    {
      "buffer": 0,
      "byteLength": 956992,
      "byteOffset": 1427352,
      "byteStride": 8,
      "name": "floatBufferViews",
      "target": 34962
    },
    {
      "buffer": 0,
      "byteLength": 2870976,
      "byteOffset": 2384344,
      "byteStride": 12,
      "name": "floatBufferViews",
      "target": 34962
    },
    {
      "buffer": 0,
      "byteLength": 1913984,
      "byteOffset": 5255320,
      "byteStride": 16,
      "name": "floatBufferViews",
      "target": 34962
    }
  ],
  "buffers": [
    {
      "byteLength": 7169304,
      "uri": "scene.bin"
    }
  ],
  "images": [
    {
      "uri": "textures/Apollo_and_Daphne_Mats_baseColor.jpeg"
    },
    {
      "uri": "textures/Apollo_and_Daphne_Mats_metallicRoughness.png"
    },
    {
      "uri": "textures/Apollo_and_Daphne_Mats_normal.jpeg"
    }
  ],
  "materials": [
    {
      "doubleSided": true,
      "name": "Apollo_and_Daphne_Mats",
      "normalTexture": {
        "index": 2
      },
      "pbrMetallicRoughness": {
        "baseColorTexture": {
          "index": 0
        },
        "metallicFactor": 0.0,
        "metallicRoughnessTexture": {
          "index": 1
        }
      }
    }
  ],
  "meshes": [
    {
      "name": "Object_0",
      "primitives": [
        {
          "attributes": {
            "NORMAL": 1,
            "POSITION": 0,
            "TANGENT": 2,
            "TEXCOORD_0": 3
          },
          "indices": 4,
          "material": 0,
          "mode": 4
        }
      ]
    },
    {
      "name": "Object_1",
      "primitives": [
        {
          "attributes": {
            "NORMAL": 6,
            "POSITION": 5,
            "TANGENT": 7,
            "TEXCOORD_0": 8
          },
          "indices": 9,
          "material": 0,
          "mode": 4
        }
      ]
    }
  ],
  "nodes": [
    {
      "children": [
        1
      ],
      "matrix": [
        -0.35377413034439087,
        4.297297779326157e-16,
        -0.935330867767334,
        0.0,
        -2.220446049250313e-16,
        -1.0,
        -3.3306690738754696e-16,
        0.0,
        -0.935330867767334,
        3.2468665457498853e-17,
        0.35377413034439087,
        0.0,
        0.0,
        0.0,
        0.0,
        1.0
      ],
      "name": "Sketchfab_model"
    },
    {
      "children": [
        2,
        3
      ],
      "name": "Apollo and Daphne.obj.cleaner.materialmerger.gles"
    },
    {
      "mesh": 0,
      "name": "Object_2"
    },
    {
      "mesh": 1,
      "name": "Object_3"
    }
  ],
  "samplers": [
    {
      "magFilter": 9729,
      "minFilter": 9987,
      "wrapS": 10497,
      "wrapT": 10497
    }
  ],
  "scene": 0,
  "scenes": [
    {
      "name": "Sketchfab_Scene",
      "nodes": [
        0
      ]
    }
  ],
  "textures": [
    {
      "sampler": 0,
      "source": 0
    },
    {
      "sampler": 0,
      "source": 1
    },
    {
      "sampler": 0,
      "source": 2
    }
  ]
}
