{
  "accessors": [
    {
      "bufferView": 2,
      "componentType": 5126,
      "count": 65532,
      "max": [
        4.988663196563721,
        7.013761043548584,
        23.782760620117188
      ],
      "min": [
        -2.333296060562134,
        -3.2686779499053955,
        -0.049045998603105545
      ],
      "type": "VEC3"
    },
    {
      "bufferView": 2,
      "byteOffset": 786384,
      "componentType": 5126,
      "count": 65532,
      "max": [
        0.9999845027923584,
        0.9999867677688599,
        0.9999706745147705
      ],
      "min": [
        -0.9999743700027466,
        -0.9999270439147949,
        -0.9998378157615662
      ],
      "type": "VEC3"
    },
    {
      "bufferView": 1,
      "componentType": 5126,
      "count": 65532,
      "max": [
        0.9993299841880798,
        0.9969080090522766
      ],
      "min": [
        0.0011350000277161598,
        0.0011360000353306532
      ],
      "type": "VEC2"
    },
    {
      "bufferView": 0,
      "componentType": 5125,
      "count": 141204,
      "type": "SCALAR"
    },
    {
      "bufferView": 2,
      "byteOffset": 1572768,
      "componentType": 5126,
      "count": 65534,
      "max": [
        4.773976802825928,
        6.80419921875,
        16.4882755279541
      ],
      "min": [
        -0.10827899724245071,
        0.3389729857444763,
        10.50001335144043
      ],
      "type": "VEC3"
    },
    {
      "bufferView": 2,
      "byteOffset": 2359176,
      "componentType": 5126,
      "count": 65534,
      "max": [
        0.999976634979248,
        0.9999878406524658,
        0.9999368190765381
      ],
      "min": [
        -0.9923214912414551,
        -0.9999815225601196,
        -0.999769389629364
      ],
      "type": "VEC3"
    },
    {
      "bufferView": 1,
      "byteOffset": 524256,
      "componentType": 5126,
      "count": 65534,
      "max": [
        0.9989380240440369,
        0.9963290095329285
      ],
      "min": [
        0.00113800005055964,
        0.00113800005055964
      ],
      "type": "VEC2"
    },
    {
      "bufferView": 0,
      "byteOffset": 564816,
      "componentType": 5125,
      "count": 134502,
      "type": "SCALAR"
    },
    {
      "bufferView": 2,
      "byteOffset": 3145584,
      "componentType": 5126,
      "count": 65533,
      "max": [
        4.377936840057373,
        6.7313947677612305,
        16.579204559326172
      ],
      "min": [
        -0.14142900705337524,
        -4.445003032684326,
        7.013240814208984
      ],
      "type": "VEC3"
    },
    {
      "bufferView": 2,
      "byteOffset": 3931980,
      "componentType": 5126,
      "count": 65533,
      "max": [
        0.9999650716781616,
        0.9999895095825195,
        0.9996377825737
      ],
      "min": [
        -0.9995762705802917,
        -0.9999586343765259,
        -0.9999326467514038
      ],
      "type": "VEC3"
    },
    {
      "bufferView": 1,
      "byteOffset": 1048528,
      "componentType": 5126,
      "count": 65533,
      "max": [
        0.9993389844894409,
        0.9951350092887878
      ],
      "min": [
        0.0011370000429451466,
        0.00113800005055964
      ],
      "type": "VEC2"
    },
    {
      "bufferView": 0,
      "byteOffset": 1102824,
      "componentType": 5125,
      "count": 135867,
      "type": "SCALAR"
    },
    {
      "bufferView": 2,
      "byteOffset": 4718376,
      "componentType": 5126,
      "count": 65532,
      "max": [
        4.849215984344482,
        6.95449686050415,
        15.655811309814453
      ],
      "min": [
        -0.4686090052127838,
        -4.129179000854492,
        -0.04904500022530556
      ],
      "type": "VEC3"
    },
    {
      "bufferView": 2,
      "byteOffset": 5504760,
      "componentType": 5126,
      "count": 65532,
      "max": [
        0.9999724626541138,
        0.9999923706054688,
        1.0
      ],
      "min": [
        -0.9998168349266052,
        -0.9999954700469971,
        -0.9999823570251465
      ],
      "type": "VEC3"
    },
    {
      "bufferView": 1,
      "byteOffset": 1572792,
      "componentType": 5126,
      "count": 65532,
      "max": [
        0.9988560080528259,
        0.986860990524292
      ],
      "min": [
        0.0011350000277161598,
        0.0011370000429451466
      ],
      "type": "VEC2"
    },
    {
      "bufferView": 0,
      "byteOffset": 1646292,
      "componentType": 5125,
      "count": 141609,
      "type": "SCALAR"
    },
    {
      "bufferView": 2,
      "byteOffset": 6291144,
      "componentType": 5126,
      "count": 65532,
      "max": [
        4.811178207397461,
        7.022100925445557,
        7.35061502456665
      ],
      "min": [
        -0.19751200079917908,
        0.7365909814834595,
        -0.049045998603105545
      ],
      "type": "VEC3"
    },
    {
      "bufferView": 2,
      "byteOffset": 7077528,
      "componentType": 5126,
      "count": 65532,
      "max": [
        0.9999880790710449,
        0.9999967813491821,
        0.9999837875366211
      ],
      "min": [
        -0.8781428933143616,
        -0.9999892711639404,
        -0.997324526309967
      ],
      "type": "VEC3"
    },
    {
      "bufferView": 1,
      "byteOffset": 2097048,
      "componentType": 5126,
      "count": 65532,
      "max": [
        0.9992989897727966,
        0.9945039749145508
      ],
      "min": [
        0.0011360000353306532,
        0.00113800005055964
      ],
      "type": "VEC2"
    },
    {
      "bufferView": 0,
      "byteOffset": 2212728,
      "componentType": 5125,
      "count": 153516,
      "type": "SCALAR"
    },
    {
      "bufferView": 2,
      "byteOffset": 7863912,
      "componentType": 5126,
      "count": 65532,
      "max": [
        4.988663196563721,
        6.856451988220215,
        16.49462127685547
      ],
      "min": [
        -0.1332170069217682,
        -4.541173934936523,
        -0.04904500022530556
      ],
      "type": "VEC3"
    },
    {
      "bufferView": 2,
      "byteOffset": 8650296,
      "componentType": 5126,
      "count": 65532,
      "max": [
        0.9999972581863403,
        0.9999780654907227,
        0.999971866607666
      ],
      "min": [
        -0.9635918140411377,
        -0.9999978542327881,
        -0.9996597170829773
      ],
      "type": "VEC3"
    },
    {
      "bufferView": 1,
      "byteOffset": 2621304,
      "componentType": 5126,
      "count": 65532,
      "max": [
        0.9988620281219482,
        0.9934970140457153
      ],
      "min": [
        0.0011399999493733048,
        0.0011409999569877982
      ],
      "type": "VEC2"
    },
    {
      "bufferView": 0,
      "byteOffset": 2826792,
      "componentType": 5125,
      "count": 160458,
      "type": "SCALAR"
    },
    {
      "bufferView": 2,
      "byteOffset": 9436680,
      "componentType": 5126,
      "count": 65534,
      "max": [
        4.533006191253662,
        6.331241130828857,
        16.470918655395508
      ],
      "min": [
        -0.12135999649763107,
        -4.351363182067871,
        6.806909084320068
      ],
      "type": "VEC3"
    },
    {
      "bufferView": 2,
      "byteOffset": 10223088,
      "componentType": 5126,
      "count": 65534,
      "max": [
        0.9999738931655884,
        0.9999957084655762,
        0.9994444847106934
      ],
      "min": [
        -0.9880295395851135,
        -0.9999443292617798,
        -0.9999823570251465
      ],
      "type": "VEC3"
    },
    {
      "bufferView": 1,
      "byteOffset": 3145560,
      "componentType": 5126,
      "count": 65534,
      "max": [
        0.9991819858551025,
        0.9950309991836548
      ],
      "min": [
        0.00113800005055964,
        0.0011360000353306532
      ],
      "type": "VEC2"
    },
    {
      "bufferView": 0,
      "byteOffset": 3468624,
      "componentType": 5125,
      "count": 144885,
      "type": "SCALAR"
    },
    {
      "bufferView": 2,
      "byteOffset": 11009496,
      "componentType": 5126,
      "count": 65532,
      "max": [
        4.482022762298584,
        6.807318210601807,
        16.482261657714844
      ],
      "min": [
        -2.7156119346618652,
        -4.473777770996094,
        -0.04904500022530556
      ],
      "type": "VEC3"
    },
    {
      "bufferView": 2,
      "byteOffset": 11795880,
      "componentType": 5126,
      "count": 65532,
      "max": [
        0.9997233748435974,
        0.9999823570251465,
        0.9996433854103088
      ],
      "min": [
        -0.9999992847442627,
        -0.9999758005142212,
        -0.9991364479064941
      ],
      "type": "VEC3"
    },
    {
      "bufferView": 1,
      "byteOffset": 3669832,
      "componentType": 5126,
      "count": 65532,
      "max": [
        0.9993370175361633,
        0.9946140050888062
      ],
      "min": [
        0.0011399999493733048,
        0.0011360000353306532
      ],
      "type": "VEC2"
    },
    {
      "bufferView": 0,
      "byteOffset": 4048164,
      "componentType": 5125,
      "count": 151647,
      "type": "SCALAR"
    },
    {
      "bufferView": 2,
      "byteOffset": 12582264,
      "componentType": 5126,
      "count": 65532,
      "max": [
        1.5448410511016846,
        6.140559196472168,
        16.526412963867188
      ],
      "min": [
        -1.7259399890899658,
        -4.4946699142456055,
        5.397349834442139
      ],
      "type": "VEC3"
    },
    {
      "bufferView": 2,
      "byteOffset": 13368648,
      "componentType": 5126,
      "count": 65532,
      "max": [
        0.999575674533844,
        0.9998300671577454,
        0.9999474287033081
      ],
      "min": [
        -0.999996542930603,
        -0.9999872446060181,
        -0.9999992847442627
      ],
      "type": "VEC3"
    },
    {
      "bufferView": 1,
      "byteOffset": 4194088,
      "componentType": 5126,
      "count": 65532,
      "max": [
        0.9989500045776367,
        0.9948499798774719
      ],
      "min": [
        0.00113800005055964,
        0.0011360000353306532
      ],
      "type": "VEC2"
    },
    {
      "bufferView": 0,
      "byteOffset": 4654752,
      "componentType": 5125,
      "count": 157872,
      "type": "SCALAR"
    },
    {
      "bufferView": 2,
      "byteOffset": 14155032,
      "componentType": 5126,
      "count": 65533,
      "max": [
        1.6436870098114014,
        6.132190227508545,
        16.729618072509766
      ],
      "min": [
        -2.8168439865112305,
        -4.711828231811523,
        0.29427599906921387
      ],
      "type": "VEC3"
    },
    {
      "bufferView": 2,
      "byteOffset": 14941428,
      "componentType": 5126,
      "count": 65533,
      "max": [
        0.9724037051200867,
        0.9993890523910522,
        0.9995520710945129
      ],
      "min": [
        -0.9999969005584717,
        -0.9999620914459229,
        -0.9990765452384949
      ],
      "type": "VEC3"
    },
    {
      "bufferView": 1,
      "byteOffset": 4718344,
      "componentType": 5126,
      "count": 65533,
      "max": [
        0.9988420009613037,
        0.9978100061416626
      ],
      "min": [
        0.0011370000429451466,
        0.0011390000581741333
      ],
      "type": "VEC2"
    },
    {
      "bufferView": 0,
      "byteOffset": 5286240,
      "componentType": 5125,
      "count": 166737,
      "type": "SCALAR"
    },
    {
      "bufferView": 2,
      "byteOffset": 15727824,
      "componentType": 5126,
      "count": 65532,
      "max": [
        3.8448169231414795,
        6.272644996643066,
        23.521709442138672
      ],
      "min": [
        -2.8291471004486084,
        -3.955394983291626,
        0.2780190110206604
      ],
      "type": "VEC3"
    },
    {
      "bufferView": 2,
      "byteOffset": 16514208,
      "componentType": 5126,
      "count": 65532,
      "max": [
        0.9999948740005493,
        0.9997368454933167,
        0.9982519149780273
      ],
      "min": [
        -0.9999939203262329,
        -0.9999991655349731,
        -0.9998214840888977
      ],
      "type": "VEC3"
    },
    {
      "bufferView": 1,
      "byteOffset": 5242608,
      "componentType": 5126,
      "count": 65532,
      "max": [
        0.9988489747047424,
        0.9960650205612183
      ],
      "min": [
        0.001142999972216785,
        0.0011399999493733048
      ],
      "type": "VEC2"
    },
    {
      "bufferView": 0,
      "byteOffset": 5953188,
      "componentType": 5125,
      "count": 136215,
      "type": "SCALAR"
    },
    {
      "bufferView": 2,
      "byteOffset": 17300592,
      "componentType": 5126,
      "count": 34481,
      "max": [
        3.853626012802124,
        5.526485919952393,
        23.782760620117188
      ],
      "min": [
        -0.879397988319397,
        0.08964899927377701,
        16.115724563598633
      ],
      "type": "VEC3"
    },
    {
      "bufferView": 2,
      "byteOffset": 17714364,
      "componentType": 5126,
      "count": 34481,
      "max": [
        0.9997394680976868,
        0.9892668724060059,
        0.9999711513519287
      ],
      "min": [
        -0.9833784103393555,
        -0.9999905824661255,
        -0.9985191822052002
      ],
      "type": "VEC3"
    },
    {
      "bufferView": 1,
      "byteOffset": 5766864,
      "componentType": 5126,
      "count": 34481,
      "max": [
        0.9990699887275696,
        0.9971070289611816
      ],
      "min": [
        0.00113800005055964,
        0.0011370000429451466
      ],
      "type": "VEC2"
    },
    {
      "bufferView": 0,
      "byteOffset": 6498048,
      "componentType": 5125,
      "count": 65400,
      "type": "SCALAR"
    },
    {
      "bufferView": 2,
      "byteOffset": 18128136,
      "componentType": 5126,
      "count": 2016,
      "max": [
        4.9882988929748535,
        7.012296199798584,
        -0.04904400184750557
      ],
      "min": [
        -2.332206964492798,
        -3.2682299613952637,
        -0.049045998603105545
      ],
      "type": "VEC3"
    },
    {
      "bufferView": 2,
      "byteOffset": 18152328,
      "componentType": 5126,
      "count": 2016,
      "max": [
        0.3775944709777832,
        0.062099091708660126,
        -0.6519018411636353
      ],
      "min": [
        -0.2682006061077118,
        -0.7583021521568298,
        -1.0
      ],
      "type": "VEC3"
    },
    {
      "bufferView": 1,
      "byteOffset": 6042712,
      "componentType": 5126,
      "count": 2016,
      "max": [
        0.7761790156364441,
        0.6677320003509521
      ],
      "min": [
        0.6940069794654846,
        0.5333150029182434
      ],
      "type": "VEC2"
    },
    {
      "bufferView": 0,
      "byteOffset": 6759648,
      "componentType": 5125,
      "count": 3006,
      "type": "SCALAR"
    }
  ],
  "asset": {
    "extras": {
      "author": "noe-3d.at (https://sketchfab.com/www.noe-3d.at)",
      "license": "CC-BY-NC-4.0 (http://creativecommons.org/licenses/by-nc/4.0/)",
      "source": "https://sketchfab.com/3d-models/grabfigur-fbd44dd62766450abefaa0e43941633e",
      "title": "Grabfigur"
    },
    "generator": "Sketchfab-15.55.0",
    "version": "2.0"
  },
  "bufferViews": [
    {
      "buffer": 0,
      "byteLength": 6771672,
      "name": "floatBufferViews",
      "target": 34963
    },
    {
      "buffer": 0,
      "byteLength": 6058840,
      "byteOffset": 6771672,
      "byteStride": 8,
      "name": "floatBufferViews",
      "target": 34962
    },
    {
      "buffer": 0,
      "byteLength": 18176520,
      "byteOffset": 12830512,
      "byteStride": 12,
      "name": "floatBufferViews",
      "target": 34962
    }
  ],
  "buffers": [
    {
      "byteLength": 31007032,
      "uri": "scene.bin"
    }
  ],
  "extensionsUsed": [
    "KHR_materials_specular"
  ],
  "images": [
    {
      "uri": "textures/Grabfigur_O_baseColor.png"
    },
    {
      "uri": "textures/Grabfigur_O_metallicRoughness.png"
    }
  ],
  "materials": [
    {
      "doubleSided": true,
      "extensions": {
        "KHR_materials_specular": {
          "specularColorFactor": [
            1.0,
            1.0,
            1.0
          ],
          "specularFactor": 0.0
        }
      },
      "name": "Grabfigur_O",
      "occlusionTexture": {
        "index": 1
      },
      "pbrMetallicRoughness": {
        "baseColorTexture": {
          "index": 0
        },
        "metallicFactor": 0.0,
        "metallicRoughnessTexture": {
          "index": 1
        }
      }
    },
    {
      "doubleSided": true,
      "name": "bottom",
      "pbrMetallicRoughness": {
        "baseColorFactor": [
          0.229789,
          0.229789,
          0.229789,
          1.0
        ],
        "metallicFactor": 0.0
      }
    }
  ],
  "meshes": [
    {
      "name": "Object_0",
      "primitives": [
        {
          "attributes": {
            "NORMAL": 1,
            "POSITION": 0,
            "TEXCOORD_0": 2
          },
          "indices": 3,
          "material": 0,
          "mode": 4
        }
      ]
    },
    {
      "name": "Object_1",
      "primitives": [
        {
          "attributes": {
            "NORMAL": 5,
            "POSITION": 4,
            "TEXCOORD_0": 6
          },
          "indices": 7,
          "material": 0,
          "mode": 4
        }
      ]
    },
    {
      "name": "Object_2",
      "primitives": [
        {
          "attributes": {
            "NORMAL": 9,
            "POSITION": 8,
            "TEXCOORD_0": 10
          },
          "indices": 11,
          "material": 0,
          "mode": 4
        }
      ]
    },
    {
      "name": "Object_3",
      "primitives": [
        {
          "attributes": {
            "NORMAL": 13,
            "POSITION": 12,
            "TEXCOORD_0": 14
          },
          "indices": 15,
          "material": 0,
          "mode": 4
        }
      ]
    },
    {
      "name": "Object_4",
      "primitives": [
        {
          "attributes": {
            "NORMAL": 17,
            "POSITION": 16,
            "TEXCOORD_0": 18
          },
          "indices": 19,
          "material": 0,
          "mode": 4
        }
      ]
    },
    {
      "name": "Object_5",
      "primitives": [
        {
          "attributes": {
            "NORMAL": 21,
            "POSITION": 20,
            "TEXCOORD_0": 22
          },
          "indices": 23,
          "material": 0,
          "mode": 4
        }
      ]
    },
    {
      "name": "Object_6",
      "primitives": [
        {
          "attributes": {
            "NORMAL": 25,
            "POSITION": 24,
            "TEXCOORD_0": 26
          },
          "indices": 27,
          "material": 0,
          "mode": 4
        }
      ]
    },
    {
      "name": "Object_7",
      "primitives": [
        {
          "attributes": {
            "NORMAL": 29,
            "POSITION": 28,
            "TEXCOORD_0": 30
          },
          "indices": 31,
          "material": 0,
          "mode": 4
        }
      ]
    },
    {
      "name": "Object_8",
      "primitives": [
        {
          "attributes": {
            "NORMAL": 33,
            "POSITION": 32,
            "TEXCOORD_0": 34
          },
          "indices": 35,
          "material": 0,
          "mode": 4
        }
      ]
    },
    {
      "name": "Object_9",
      "primitives": [
        {
          "attributes": {
            "NORMAL": 37,
            "POSITION": 36,
            "TEXCOORD_0": 38
          },
          "indices": 39,
          "material": 0,
          "mode": 4
        }
      ]
    },
    {
      "name": "Object_10",
      "primitives": [
        {
          "attributes": {
            "NORMAL": 41,
            "POSITION": 40,
            "TEXCOORD_0": 42
          },
          "indices": 43,
          "material": 0,
          "mode": 4
        }
      ]
    },
    {
      "name": "Object_11",
      "primitives": [
        {
          "attributes": {
            "NORMAL": 45,
            "POSITION": 44,
            "TEXCOORD_0": 46
          },
          "indices": 47,
          "material": 0,
          "mode": 4
        }
      ]
    },
    {
      "name": "Object_12",
      "primitives": [
        {
          "attributes": {
            "NORMAL": 49,
            "POSITION": 48,
            "TEXCOORD_0": 50
          },
          "indices": 51,
          "material": 1,
          "mode": 4
        }
      ]
    }
  ],
  "nodes": [
    {
      "children": [
        1
      ],
      "matrix": [
        -0.0038202124916424385,
        -1.70136579100772e-17,
        0.07662270342403277,
        0.0,
        0.07662270342403277,
        -8.482575734364147e-19,
        0.0038202124916424385,
        0.0,
        0.0,
        0.07671787589788437,
        1.7034790444433316e-17,
        0.0,
        0.0,
        0.0,
        0.0,
        1.0
      ],
      "name": "Sketchfab_model"
    },
    {
      "children": [
        2,
        3,
        4,
        5,
        6,
        7,
        8,
        9,
        10,
        11,
        12,
        13,
        14
      ],
      "name": "Grabfigur_C.obj.cleaner.materialmerger.gles"
    },
    {
      "mesh": 0,
      "name": "Object_2"
    },
    {
      "mesh": 1,
      "name": "Object_3"
    },
    {
      "mesh": 2,
      "name": "Object_4"
    },
    {
      "mesh": 3,
      "name": "Object_5"
    },
    {
      "mesh": 4,
      "name": "Object_6"
    },
    {
      "mesh": 5,
      "name": "Object_7"
    },
    {
      "mesh": 6,
      "name": "Object_8"
    },
    {
      "mesh": 7,
      "name": "Object_9"
    },
    {
      "mesh": 8,
      "name": "Object_10"
    },
    {
      "mesh": 9,
      "name": "Object_11"
    },
    {
      "mesh": 10,
      "name": "Object_12"
    },
    {
      "mesh": 11,
      "name": "Object_13"
    },
    {
      "mesh": 12,
      "name": "Object_14"
    }
  ],
  "samplers": [
    {
      "magFilter": 9729,
      "minFilter": 9987,
      "wrapS": 10497,
      "wrapT": 10497
    }
  ],
  "scene": 0,
  "scenes": [
    {
      "name": "Sketchfab_Scene",
      "nodes": [
        0
      ]
    }
  ],
  "textures": [
    {
      "sampler": 0,
      "source": 0
    },
    {
      "sampler": 0,
      "source": 1
    }
  ]
}
